<svg xmlns="http://www.w3.org/2000/svg" width="30" height="30" viewBox="0 0 30 30">
  <defs>
    <style>
      .cls-1 {
        fill: #fe2426;
        fill-rule: evenodd;
      }
    </style>
  </defs>
  <path id="Shape_23_copy" data-name="Shape 23 copy" class="cls-1" d="M91,818a15,15,0,1,1,15-15A15.017,15.017,0,0,1,91,818Zm0-27.273A12.273,12.273,0,1,0,103.273,803,12.287,12.287,0,0,0,91,790.727Zm0,21.942A9.669,9.669,0,1,1,100.669,803,9.68,9.68,0,0,1,91,812.669Zm0-16.907A7.238,7.238,0,1,0,98.238,803,7.246,7.246,0,0,0,91,795.762Zm0,11.881A4.643,4.643,0,1,1,95.644,803,4.648,4.648,0,0,1,91,807.643Zm0-7.142a2.5,2.5,0,1,0,2.5,2.5A2.5,2.5,0,0,0,91,800.5Z" transform="translate(-76 -788)"/>
</svg>
