<svg xmlns="http://www.w3.org/2000/svg" width="13" height="8" viewBox="0 0 13 8">
  <defs>
    <style>
      .cls-1 {
        fill: #515365;
        fill-rule: evenodd;
      }
    </style>
  </defs>
  <path class="cls-1" d="M184.007,1178.78l5.785-6.06a0.74,0.74,0,0,0,.208-0.52,0.764,0.764,0,0,0-.208-0.53l-0.426-.45a0.689,0.689,0,0,0-1.005,0l-4.858,5.09-4.864-5.09a0.685,0.685,0,0,0-1.006,0l-0.425.44a0.779,0.779,0,0,0,0,1.06l5.79,6.06A0.688,0.688,0,0,0,184.007,1178.78Z" transform="translate(-177 -1171)"/>
</svg>
