<?xml version="1.0" encoding="utf-8"?>
  Generator: Adobe Illustrator 23.0.0, SVG Export Plug-In . SVG Version: 6.00 Build 0)   
<svg version="1.1" id="Layer_1" xmlns="http://www.w3.org/2000/svg" xmlns:xlink="http://www.w3.org/1999/xlink" x="0px" y="0px"
	 viewBox="0 0 341.4 249.2" style="enable-background:new 0 0 341.4 249.2;" xml:space="preserve">
<style type="text/css">
	.st0{fill:#303086;}
	.st1{fill:#05877B;}
</style>
<title>loader-logo</title>
<path class="st0" d="M32.4,196.6c2,0,4.4-0.2,6.8-0.2c1,0,2.1,0,3.1,0.1h0.2c0.4,0,0.7,0,1,0c6,0,11.4,4,11.4,11.5
	c0,9.7-8.2,11.5-13.6,12l0,0l-5,0.2c-0.1,2.8-0.2,6-0.2,8.6c0,0.3,0,0.5,0,0.7v1.9c-0.1,0.2-0.2,0.3-0.3,0.4l-13.2,0.2
	c-0.3-1.2-0.5-2.4-0.4-3.6V216c0-3.6,0-6.3,0-9.5v-9.6c0.1,0,1.5,0,2-0.1l2.9-0.1c0.6,0,1.2,0,1.7,0L32.4,196.6z M42.3,206.1
	c-1-2.6-4-2.6-6.5-2.6c-0.3,0-0.3,4.3-0.3,6.8v1.7l0.1,1.4c3.5-0.1,7.2-1.2,7.2-5.4C42.8,207.3,42.7,206.7,42.3,206.1L42.3,206.1z"
	/>
<path class="st0" d="M85.5,205.8c-2.8,0-5.5-0.1-8.4-0.1c0,2.2,0,4.9,0,7c0,1.7,0,4.7,0,6.6l0.1,12.3c-0.1,0.2-0.3,0.3-0.5,0.4
	c-1.7,0-3.3-0.1-4.9-0.1l0,0h-1.5h-4.3c-0.9,0-1.7,0-2.6,0l-0.4-0.4c-0.1-0.1-0.2-0.2-0.3-0.4c0-3.1,0.1-6,0.2-9.1v-1.9
	c0-3.5,0.2-7,0.2-10.5v-0.6c-0.2-2.8-0.1-3.2-1.6-3.2c-0.3,0-0.7,0.1-0.9,0.1l-5.7,0c-0.2-0.9-0.3-1.8-0.3-2.7c0-0.7,0-1.5,0-2v-0.6
	c0,0,0-3.7-0.1-4c0.1,0,0.1,0,0.2,0c10,0,19.7-0.3,29.5-0.3c1.3,0,1.4,0.2,1.4,0.6v6.1c0,0.6,0,1.2,0,1.9c0,0.2,0,0.4-0.1,0.7
	C85.6,205.7,85.6,205.8,85.5,205.8"/>
<path class="st0" d="M101.8,203.9v1.3c0,6.5,0.2,12.5,0.2,18.8c0,0.1,0,0.2,0.1,0.4v0.1c0,0.1,0.1,0.2,0.1,0.3
	c0,1.1,0.1,2.3,0.1,3.4l0.1,3.3c-0.1,0.2-0.2,0.3-0.4,0.4h-0.8c-4.5,0-8.8,0.2-13,0.2c-0.2-0.1-0.4-0.2-0.6-0.4c0-0.1,0-0.2,0-0.4
	l0.1-2.6c0-2.2,0-4.4,0.3-6.5c0-6.7,0.1-13.5,0.3-20.3c-0.1-1-0.1-2-0.1-2.9v-0.8c-0.1-0.6-0.1-1.1-0.1-1.7c0-0.1,0-0.2,0.1-0.3
	c3.4,0.2,6.6,0.3,10.2,0.3c1.3,0,2.4,0,3.6-0.1c0,0.1,0.1,0.3,0.1,0.4h-0.2L101.8,203.9z"/>
<path class="st1" d="M154,231.9h-1.4h-2.2c-1.9,0-3.7,0-5.6-0.2h0.1c-0.1,0-0.1-0.1-0.2-0.3l-0.1-0.5c-0.2-1.6-0.6-3.1-1.1-4.6
	l-9.9,0.1c-0.4,1.7-0.9,3.6-1.4,5.3c-0.7,0.2-1.5,0.3-2.2,0.2h-0.6H128c-2,0-4,0.1-6,0.1h-0.7c-0.3,0-0.4,0-0.7,0H119
	c-0.1-0.1-0.2-0.3-0.3-0.4c1.9-6.6,4.1-13.3,6.3-19.9l0.5-1.6l0,0l0.6-1.9c1.3-3.9,2.7-7.7,3.8-11.6c0-0.1,0-0.2,0.1-0.2h3.8
	c2.8,0,5.5-0.1,8.2-0.1l2.2,0.1c0.4,0,1.2-0.1,1.8-0.1s1.4,0.1,1.4,0.6c3.9,10.9,7.1,21.7,10.5,32.2l0.3,1.2
	c0.1,0.5,0.3,0.9,0.5,1.3c0,0.4-0.6,0.3-2,0.3h-1.4L154,231.9 M139.6,204.5c-0.1-0.5-0.5-0.9-1-1.1c-0.7,0.2-2.8,9.9-3.7,13.9
	l-0.3,1.5h1.4c0.3,0,0.6,0,0.9,0c2.2,0,5.5,0,5.5,0s-0.4-2.8-0.5-4.1l-0.9-4c-0.5-2-1-4.1-1.4-6.1L139.6,204.5z"/>
<path class="st1" d="M192.9,209.6c-0.3,0.3-2.5,0.4-5,0.4c-1.1,0-2.6,0-3.7,0h-0.3c-0.8,0-1.4,0-2,0h-0.6h-0.5c-1.5,0-0.3-5-3.6-5
	c-4.2,0-4.2,5.2-4.2,9v0.6c0,0.6-0.1,1.4-0.1,2.3c0,2.7,0.4,6.4,3.6,6.5c2.1,0,2.4-2,2.9-3.5l0,0c0.1-0.4,0.3-0.9,0.5-1.3h0.9h1.1
	h3.8h1.1h2.2h1.3h1.4h0.9c0.2,0,0.3,0.2,0.4,0.5l-0.1,0.8c-0.7,9.4-9,13-16.7,13c-15.1,0-17.7-11.7-17.7-19.9c0-0.1,0-0.3,0-0.4
	c0.2-2.7,0.8-5.3,1.9-7.7c3.4-6.8,10.4-9,16.8-9c10.1,0,14.7,5,15.3,11.7L192.9,209.6z"/>
<path class="st1" d="M224.3,205.8c-2.8,0-5.5-0.1-8.4-0.1c-0.1,2.2-0.1,4.9-0.1,7c0,1.7,0,4.7,0,6.6l0.1,12.3
	c-0.1,0.2-0.3,0.3-0.5,0.4c-1.7,0-3.3-0.1-4.9-0.1l0,0h-1.5h-4.2c-0.9,0-1.7,0-2.6,0l-0.4-0.4c-0.1-0.1-0.2-0.3-0.3-0.4
	c0-3.1,0.1-6,0.2-9.1v-1.9c0-3.5,0.2-7,0.2-10.5l-0.1-0.6c-0.2-2.8-0.1-3.2-1.6-3.2c-0.3,0-0.7,0.1-0.9,0.1l-5.7-0.1
	c-0.2-0.9-0.3-1.8-0.3-2.7c0-0.7,0-1.5,0-2v-0.6c0,0,0-3.7-0.1-4c0.1,0,0.1,0,0.2,0c10,0,19.7-0.3,29.5-0.3c1.3,0,1.4,0.2,1.4,0.6
	v6.1c0,0.6,0,1.2,0,1.9c0,0.2,0,0.4-0.1,0.7c0,0.1,0,0.1-0.1,0.1"/>
<path class="st1" d="M240.6,203.9v1.3c0,6.5,0.2,12.5,0.2,18.8c0,0.1,0,0.2,0.1,0.4v0.1c0,0.1,0.1,0.2,0.1,0.3
	c0,1.1,0.1,2.3,0.1,3.4l0.1,3.3c-0.1,0.2-0.2,0.3-0.4,0.4h-0.8c-4.5,0-8.8,0.2-13,0.2l-0.6-0.4c0-0.1,0-0.2,0-0.4l0.1-2.6
	c0-2.2,0-4.4,0.3-6.5c0-6.7,0.1-13.5,0.3-20.3c0-1-0.1-2-0.1-2.9v-0.8c-0.1-0.6-0.1-1.1-0.1-1.7c0-0.1,0-0.2,0.1-0.3
	c3.4,0.2,6.6,0.3,10.2,0.3c1.3,0,2.4,0,3.6-0.1c0,0.1,0.1,0.3,0.1,0.4h-0.2L240.6,203.9z"/>
<path class="st1" d="M276.2,227.4c-3.1,3.6-9.2,5.2-13.9,5.3c-4.1,0-7.6-0.7-10.9-2.8c-5.8-3.8-7.2-10.2-7.2-16c0-0.1,0-0.3,0-0.5
	c0.3-3,0.7-6.4,2.2-9.3c3.4-5.9,9.8-8.7,16.7-8.7c3.6,0,9.9,1.1,13,5.2c1.6,1.8,2.8,4,3.5,6.3c0.6,2.1,0.9,4.3,0.9,6.5
	c0,4.8-0.9,9.4-3.4,12.6L276.2,227.4z M257.7,212.5l-0.1,1.2c0,0,0,0.1,0,0.1v0.1c0,0.5-0.1,1.2-0.1,1.9c0,3.6,0.8,8.4,4.6,8.6
	c5.5,0,5.7-6,5.7-11.3c0-3.7-0.5-9-5-9S258,209,257.7,212.5"/>
<path class="st1" d="M319.2,225.2c0,1.3,0,2.9,0,4.1v1.2c0,0.4,0,0.8,0,1.1s-0.6,0.2-1.1,0.2h-0.6c-2.6,0-5,0.1-7.3,0.1
	s-4.6,0-6.9,0c-0.4-0.5-2-5.2-2.5-6.7l-4.4-11.7l-0.8,0.1c0,0.7,0,1.6,0,2.4v6.3c0,2.1,0.1,4.3,0.1,6.3v2.6c0,0.5,0,1-0.5,1.1
	c-1.5,0-3-0.1-4.4-0.1h-0.7c-1.1,0-2.5,0.1-3.5,0.1h-0.5c-0.5,0-1.1,0-1.7,0h-0.1c-0.4-0.3-0.8-0.7-0.8-1v-0.4c0-0.1,0-0.3,0-0.5
	l0.1-9c0-7.5,0-14.9,0.3-22.5l0-1.9c0-0.2,13.5-0.4,16-0.4c0.2,0.3,0.3,0.6,0.4,1v-0.1l0.1,0.5c1.4,4,3.1,8.4,4.6,12.3l0,0
	c0.7,1.8,1.4,3.6,2.1,5.5h0.8c0-6.3,0.1-13,0.1-18.9c1.1-0.2,2.3-0.3,3.4-0.2c2.1,0,4.5,0.1,5.8,0.1h1.7c0.1,6.6,0.2,12.4,0.2,18.6
	c0,0.5,0,1,0,1.6v8.6L319.2,225.2z"/>
<path class="st1" d="M146.3,115.8c3.6,1.2,7.3,2,11,2.3c2.7,0.2,5.6,0.1,8.2-0.4l0,0c4.8-1.3,9.3-3.4,13.5-6l0,0
	c-14.3,6.4-35.9-4.7-35.9-4.7l-27.3-34.6c-0.8-21.3,8.6-35.4,8.6-35.4c-14.7,11.2-15.5,34.8-15.5,40.2l27.5,33.9
	c1.5,1,3,1.8,4.6,2.6C141.1,113.7,144.5,115.2,146.3,115.8z"/>
<path class="st1" d="M136.2,24h-4l-2.4,5.4c1.4,0.8,2.8,1.6,4.2,2.3L136.2,24z"/>
<path class="st1" d="M156.8,35.6l0.7-9.2l-3.9,1.4l-1.6,8C153.6,35.8,155.2,35.8,156.8,35.6L156.8,35.6z"/>
<path class="st1" d="M170.8,178.6l0.7-0.1l0,0c1.1-0.1,2.2-0.1,3.3-0.2V178l0.6-7l0.1-1.6l4.3-37.3l-8,39.1L170.8,178.6z"/>
<path class="st1" d="M158,178.4c1.9,0.1,3.7,0.3,5.4,0.3l0.8-7.1l0,0l4.5-32.2l-9.1,31.9L158,178.4z"/>
<path class="st1" d="M179,111.7c-1.7,2.1-3.7,3.9-6,5.3c-1.1,0.8-2.3,1.5-3.6,2.2c-3.8,1.9-7.8,3.2-12,3.7
	c-4.2,0.5-8.5,0.5-12.7-0.1c-2.1-0.3-4.2-0.7-6.3-1.2l-1.2-0.3l-2,40.9l-0.2,4.3l-0.3,7.5c3.5,1.1,6.9,1.9,10.1,2.5v-47.1
	C169.9,129.6,179,111.7,179,111.7"/>
<path class="st1" d="M195.3,60.9l2.5-26.6l-1.6,0.6l-4,26.9l-0.4,2.5c1.1-0.2,2.1-0.5,3.2-0.7c2.7-0.7,5.4-1.5,8-2.6l0.2-2.6
	L195.3,60.9z"/>
<path class="st1" d="M163.4,64.1L164,61l-8.9-2.1l0.1-1.8c-0.1,0.1-0.2,0.2-0.3,0.3c-0.5,0.4-0.9,0.8-1.4,1.1
	c-1.1,0.7-2.3,1.3-3.6,1.7c1.4,0.5,3,1.1,5,1.7C157.7,62.8,160.6,63.5,163.4,64.1"/>
<path class="st1" d="M179.3,28l-2.6,1.4l-5.7,32.6l-0.5,3.1c1.5,0.2,3.1,0.3,4.7,0.3c3.1,0.1,6.2,0.1,9.2-0.2l0.4-2.8l-9.3-0.3
	L179.3,28z"/>
<path class="st0" d="M179,111.7L179,111.7z M215.1,60.2l-3.5-24.5L199,26.2l-4.4,1.7l-1.9-3.2l-0.7-1.2l-13.9-3l-4.6,2.5l-9.2-6.6
	l-9.1,3.2l-1.6-2.8h-26.1l-5.9,13.4c-0.7,0.5-1.3,0.9-1.9,1.4c-19.1,15-18,45.7-17.9,47.1l0.1,1.2l28.5,35l-2.6,56.7
	c0,0,4.8,1.7,7.1,2.4l2.5-52.7l1.2,0.3c2.1,0.5,4.2,0.9,6.3,1.2c4.2,0.6,8.5,0.6,12.7,0.1c4.2-0.5,8.2-1.7,12-3.7
	c1.2-0.6,2.4-1.4,3.5-2.1c2.3-1.4,4.3-3.2,6-5.3c-4.2,2.6-8.7,4.7-13.5,6l0,0c-2.7,0.5-5.5,0.6-8.2,0.4c-3.8-0.3-7.4-1.1-11-2.3
	c-1.8-0.6-3.5-1.3-5.2-2.1c-1.6-0.7-3.1-1.6-4.6-2.6L109,77.2c0-5.4,0.8-29,15.5-40.2c2.2,1.1,4.4,2,6.8,2.7c2.8,0.9,5.8,1.6,8.7,2
	c2.8,0.4,5.7,0.6,8.6,0.5c2.1-0.1,4.2-0.2,6.3-0.5c0.5,2.8,0.4,5.7-0.2,8.4c-0.7,3.6-3.3,6.5-6.8,7.6c-0.6,0.2-1.3,0.3-1.9,0.4h-0.2
	c-2.7,0.3-9.8,0.5-21.6-3.6c0.2,0.3,4.2,4.7,10.7,11.7L130.3,80l9.3-12.6l1.3,15l3.5-9.9l25.6,9.9l8.3,18.5l-3.8-19.7l12.3-3.6
	l7.9,4l-6.9-9.6c6.7-0.7,13.4-2.4,19.6-5l-2.7,37.9l-9.2,15.1c-1.6,2.3-3.5,4.4-5.7,6.3c1.3,0,2.6-0.2,3.9-0.4l2.8,48.8l0.4-0.1
	c2.4-0.7,4.7-1.4,7-2.2l-3.1-47.4l10.9-18L215.1,60.2z M144.9,35.1c-1.2-0.2-2.3-0.5-3.4-0.8c-2.5-0.7-4.8-1.5-7.2-2.6l-0.3-0.1
	c-1.5-0.7-2.9-1.4-4.2-2.3l2.4-5.4h14.9L144.9,35.1z M164,61l-0.5,3.1c-2.9-0.6-5.8-1.3-8.7-2.1c-1.9-0.6-3.6-1.2-5-1.8
	c1.3-0.4,2.5-0.9,3.6-1.7c0.5-0.3,1-0.7,1.4-1.1c0.1-0.1,0.2-0.2,0.3-0.3c1.6-1.6,2.9-3.5,3.6-5.7c0.8-2.2,1.2-4.4,1.4-6.7
	c0.2-2.3,0.1-4.6-0.2-6.9l-0.4-2.5l-2.8,0.3h-0.1c-1.6,0.1-3.1,0.2-4.7,0.1l1.6-8l3.9-1.4l5.8-2l6.3,4.5L164,61z M184.9,62.5
	l-0.4,2.8c-3.1,0.3-6.2,0.3-9.2,0.2c-1.6-0.1-3.2-0.2-4.7-0.3l0.5-3.1l5.7-32.6l2.6-1.4l8.2,1.8l1.8,3.2L184.9,62.5z M203.3,58.4
	l-0.3,2.6c-2.6,1-5.3,1.9-8,2.6c-1.1,0.3-2.1,0.5-3.2,0.7l0.4-2.5l4-26.9l1.6-0.6l7.1,5.4V40L203.3,58.4z"/>
<path class="st0" d="M169.6,166.1L169.6,166.1l-1-26.8l0,0l-3.5,22.9l-1,9.3l0,0l-0.8,7.1l0,0c1,0,1.9,0.1,2.8,0.1s1.7,0,2.4,0l0,0
	l1.4-0.1l-0.2-7.2L169.6,166.1z"/>
<path class="st0" d="M181.3,167.5l-1.4-35.3l0,0l-4.3,37.3l-0.1,1.6l0,0l-0.6,7v0.3l0,0c1.2-0.1,2.4-0.2,3.6-0.4s2.1-0.2,3.1-0.3
	l-0.2-7.2L181.3,167.5z"/>
</svg>
