<svg xmlns="http://www.w3.org/2000/svg" width="38" height="16" viewBox="0 0 38 16">
  <defs>
    <style>
      .cls-1 {
        fill: #fff;
        fill-rule: evenodd;
      }
    </style>
  </defs>
  <path id="Forma_1_copy" data-name="Forma 1 copy" class="cls-1" d="M177.722,1043.35c-1.5-.83-2.714-0.15-2.714,1.51v12.28c0,1.66,1.215,2.34,2.714,1.51l11.145-6.15c1.5-.83,1.5-2.17,0-3Z" transform="translate(-175 -1043)"/>
  <path class="cls-1" d="M204.225,1043h-3.25a0.99,0.99,0,0,0-.975,1v14a0.99,0.99,0,0,0,.975,1h3.25a0.99,0.99,0,0,0,.975-1v-14A0.99,0.99,0,0,0,204.225,1043Zm7.8,0h-3.25a0.99,0.99,0,0,0-.975,1v14a0.99,0.99,0,0,0,.975,1h3.25a0.99,0.99,0,0,0,.975-1v-14A0.99,0.99,0,0,0,212.025,1043Z" transform="translate(-175 -1043)"/>
</svg>
