<svg xmlns="http://www.w3.org/2000/svg" width="28.031" height="30" viewBox="0 0 28.031 30">
  <defs>
    <style>
      .cls-1 {
        fill: #280091;
        fill-rule: evenodd;
      }
    </style>
  </defs>
  <path class="cls-1" d="M104.873,189.83l-10.56-9.94a2.928,2.928,0,0,0-3.96,0,2.521,2.521,0,0,0-.341,3.339L90,183.3a18.087,18.087,0,0,1-5.36,9.428l-4.843,4.56a2.526,2.526,0,0,0,0,3.727l2.64,2.485a2.922,2.922,0,0,0,3.96,0l0.66-.621,4.62,4.349a2.922,2.922,0,0,0,3.96,0,2.53,2.53,0,0,0,0-3.727l-1.98-1.864,0.66-.622a2.526,2.526,0,0,0,0-3.727l-0.448-.423a20.2,20.2,0,0,1,7.388-2.97l0.074-.014a2.936,2.936,0,0,0,3.546-.321h0A2.532,2.532,0,0,0,104.873,189.83Zm-19.8,12.426a0.975,0.975,0,0,1-1.32,0l-2.64-2.485a0.843,0.843,0,0,1,0-1.243l4.62-4.349,3.96,3.728Zm9.24,2.485a0.844,0.844,0,0,1,0,1.243,0.977,0.977,0,0,1-1.32,0l-4.62-4.349,1.32-1.243Zm-3.3-5.592c0.281-.264.7-0.668,1.363-1.2l0.617,0.58a0.843,0.843,0,0,1,0,1.243l-0.66.621Zm0.04-2.447-4.039-3.8a19.749,19.749,0,0,0,4.544-8.148l8.15,7.673A21.853,21.853,0,0,0,91.053,196.7Zm12.5-4.387a0.973,0.973,0,0,1-1.32,0l-10.56-9.94a0.843,0.843,0,0,1,0-1.243,0.975,0.975,0,0,1,1.32,0l10.56,9.941A0.843,0.843,0,0,1,103.553,192.315Zm-17.159,4.971a0.973,0.973,0,0,0-1.32,0l-1.32,1.242a0.843,0.843,0,0,0,0,1.243,0.975,0.975,0,0,0,1.32,0l1.32-1.243A0.842,0.842,0,0,0,86.394,197.286ZM98.6,178a0.907,0.907,0,0,0-.933.879v1.757a0.935,0.935,0,0,0,1.867,0v-1.757A0.907,0.907,0,0,0,98.6,178Zm7.467,7.029H104.2a0.88,0.88,0,1,0,0,1.757h1.867A0.88,0.88,0,1,0,106.067,185.029Zm-1.207-5.015a0.975,0.975,0,0,0-1.32,0l-1.867,1.758a0.843,0.843,0,0,0,0,1.242,0.975,0.975,0,0,0,1.32,0l1.867-1.757A0.844,0.844,0,0,0,104.86,180.014Z" transform="translate(-78.969 -178)"/>
</svg>
